<?xml version="1.0" encoding="utf-8"?>
<!-- Generator: Adobe Illustrator 16.0.0, SVG Export Plug-In . SVG Version: 6.00 Build 0)  -->
<!DOCTYPE svg PUBLIC "-//W3C//DTD SVG 1.1//EN" "http://www.w3.org/Graphics/SVG/1.1/DTD/svg11.dtd">
<svg version="1.1" id="Capa_1" xmlns="http://www.w3.org/2000/svg" xmlns:xlink="http://www.w3.org/1999/xlink" x="0px" y="0px"
	 width="50px" height="38.4px" viewBox="0 0 50 38.4" style="enable-background:new 0 0 50 38.4;" xml:space="preserve">
<path style="fill:#FFFFFF;" d="M48,5.4c0,2.4-2,4.4-4.4,4.4H5.4C3,9.8,1,7.8,1,5.4V5.2c0-2.4,2-4.4,4.4-4.4h38.2
	c2.4,0,4.4,2,4.4,4.4V5.4z"/>
<path style="fill:#FFFFFF;" d="M48,19.4c0,2.4-2,4.4-4.4,4.4H5.4c-2.4,0-4.4-2-4.4-4.4v-0.2c0-2.4,2-4.4,4.4-4.4h38.2
	c2.4,0,4.4,2,4.4,4.4V19.4z"/>
<path style="fill:#FFFFFF;" d="M48,33.4c0,2.4-2,4.4-4.4,4.4H5.4c-2.4,0-4.4-2-4.4-4.4v-0.2c0-2.4,2-4.4,4.4-4.4h38.2
	c2.4,0,4.4,2,4.4,4.4V33.4z"/>
</svg>
