<?xml version="1.0" encoding="utf-8"?>
<!-- Generator: Adobe Illustrator 16.0.0, SVG Export Plug-In . SVG Version: 6.00 Build 0)  -->
<!DOCTYPE svg PUBLIC "-//W3C//DTD SVG 1.1//EN" "http://www.w3.org/Graphics/SVG/1.1/DTD/svg11.dtd">
<svg version="1.1" id="Capa_1" xmlns="http://www.w3.org/2000/svg" xmlns:xlink="http://www.w3.org/1999/xlink" x="0px" y="0px"
	 width="100px" height="100px" viewBox="0 0 100 100" style="enable-background:new 0 0 100 100;" xml:space="preserve">
<circle style="fill:#8CC63F;stroke:#8CC63F;stroke-width:4.6381;stroke-miterlimit:10;" cx="49.9" cy="50" r="45.8"/>
<g>
	<g>
		<path style="fill:#FFFFFF;" d="M66.3,59c0-2.9-2-3.6-4.4-3.6l-12.1,0c-0.5-1.2-1.1-3.3-2.6-4.5c-2.7-2.2-5-1.2-6.8-0.1
			c-3.9,2.3-8.3,7.2-11,8.1c-3.3,1.1-7.3,0.8-7.3,0.8v16.8c6.8,0,11,2.4,14.5,3.8c7.9,3.2,13.4,3.2,16.3,3.1c6-0.2,6.5-5.1,6.6-6.1
			c1.6-0.6,2.6-1.6,3-2.8c0.2-0.5,0.3-1,0.3-1.6c0-0.9-0.3-1.8-0.5-2.3c1.4-0.7,2.2-1.7,2.5-3c0.1-0.3,0.1-0.7,0.1-1.1
			c0-2.5-1.2-3.1-1.2-3.1S66.3,61.9,66.3,59z"/>
		<path style="fill:#FFFFFF;" d="M65.4,17.2c-8.9-2.4-18.1,3-20.4,11.9c-2.1,7.9,1.9,16.1,9.1,19.4L53,52.6h6l0.7-2.6
			c7.9,0.7,15.4-4.4,17.6-12.4C79.7,28.7,74.3,19.6,65.4,17.2z M73.8,36.7c-1.8,7-9,11.1-16,9.3c-7-1.8-11.1-9-9.3-16
			c1.8-7,9-11.1,16-9.3C71.5,22.6,75.6,29.7,73.8,36.7z"/>
		<path style="fill:#FFFFFF;" d="M61,23c-3.5,0-6.7,1.8-8.5,4.7c-0.4,0.6-0.2,1.5,0.4,1.9c0.2,0.1,0.5,0.2,0.7,0.2
			c0.5,0,0.9-0.2,1.2-0.6c1.3-2.2,3.7-3.4,6.2-3.4c0.8,0,1.4-0.6,1.4-1.4C62.4,23.6,61.7,23,61,23z"/>
	</g>
</g>
</svg>
