<?xml version="1.0" encoding="utf-8"?>
<!-- Generator: Adobe Illustrator 16.0.0, SVG Export Plug-In . SVG Version: 6.00 Build 0)  -->
<!DOCTYPE svg PUBLIC "-//W3C//DTD SVG 1.1//EN" "http://www.w3.org/Graphics/SVG/1.1/DTD/svg11.dtd">
<svg version="1.1" id="Capa_1" xmlns="http://www.w3.org/2000/svg" xmlns:xlink="http://www.w3.org/1999/xlink" x="0px" y="0px"
	 width="165.9px" height="80.3px" viewBox="0 0 165.9 80.3" style="enable-background:new 0 0 165.9 80.3;" xml:space="preserve">
<g>
	<g>
		<path style="fill:#93C01F;" d="M14.8,60.8c0,0.4-0.1,0.7-0.2,1c-0.1,0.3-0.3,0.6-0.5,0.9s-0.5,0.4-0.8,0.6
			c-0.3,0.1-0.7,0.2-1.1,0.2h-1.2V69H9.6V55.8h2.7c0.8,0,1.4,0.2,1.9,0.7s0.6,1.1,0.6,1.9V60.8z M13.3,58.7c0-0.5-0.1-0.9-0.3-1.1
			c-0.2-0.2-0.5-0.3-1-0.3h-0.9V62H12c0.4,0,0.7-0.1,0.9-0.3c0.2-0.2,0.3-0.6,0.3-1.1V58.7z"/>
		<path style="fill:#93C01F;" d="M20.6,66.7c0,0.4-0.1,0.8-0.2,1.1c-0.1,0.3-0.3,0.6-0.5,0.8c-0.2,0.2-0.5,0.4-0.8,0.5
			c-0.3,0.1-0.6,0.2-1,0.2c-0.4,0-0.7-0.1-1-0.2c-0.3-0.1-0.6-0.3-0.8-0.5c-0.2-0.2-0.4-0.5-0.5-0.8c-0.1-0.3-0.2-0.7-0.2-1.1V61
			c0-0.4,0.1-0.8,0.2-1.1c0.1-0.3,0.3-0.6,0.5-0.8c0.2-0.2,0.5-0.4,0.8-0.5c0.3-0.1,0.7-0.2,1-0.2c0.4,0,0.7,0.1,1,0.2
			c0.3,0.1,0.6,0.3,0.8,0.5c0.2,0.2,0.4,0.5,0.6,0.8c0.1,0.3,0.2,0.7,0.2,1.2c0,0.7-0.1,1.3-0.2,1.8c-0.1,0.5-0.4,0.9-0.7,1.3
			c-0.3,0.4-0.7,0.7-1.1,1c-0.5,0.3-1,0.6-1.7,0.9v0.5c0,0.4,0.1,0.6,0.3,0.8s0.4,0.3,0.8,0.3c0.3,0,0.5-0.1,0.7-0.3
			s0.3-0.5,0.3-0.8v-0.2l1.5-0.5V66.7z M19.2,61.3c0-0.5-0.1-0.9-0.3-1.1c-0.2-0.2-0.5-0.3-0.8-0.3c-0.3,0-0.6,0.1-0.8,0.3
			S17,60.7,17,61v3.5c0.5-0.2,0.8-0.4,1.1-0.6c0.3-0.2,0.5-0.4,0.7-0.7c0.2-0.2,0.3-0.5,0.3-0.8S19.2,61.7,19.2,61.3z"/>
		<path style="fill:#93C01F;" d="M24.3,58.5c0.4,0,0.7,0.1,0.9,0.3l-0.5,1.3c-0.1-0.1-0.2-0.1-0.5-0.1c-0.3,0-0.5,0.1-0.7,0.3
			c-0.2,0.2-0.3,0.5-0.3,0.8V69h-1.5V58.7h1l0.3,0.7c0.1-0.2,0.2-0.4,0.4-0.5C23.7,58.6,24,58.5,24.3,58.5z"/>
		<path style="fill:#93C01F;" d="M27.3,56.1c0,0.3-0.1,0.5-0.2,0.7s-0.3,0.3-0.5,0.3c-0.2,0-0.4-0.1-0.6-0.3
			c-0.1-0.2-0.2-0.4-0.2-0.7c0-0.2,0.1-0.4,0.2-0.6c0.1-0.2,0.3-0.3,0.6-0.3c0.2,0,0.4,0.1,0.6,0.3C27.2,55.7,27.3,55.9,27.3,56.1z
			 M27.2,69h-1.5V58.7h1.5V69z"/>
		<path style="fill:#93C01F;" d="M31.3,67.8c0.3,0,0.5-0.1,0.7-0.3l1,1.1c-0.2,0.2-0.4,0.4-0.7,0.5s-0.6,0.2-0.9,0.2
			c-0.8,0-1.4-0.2-1.7-0.7s-0.6-1.1-0.6-1.9V60h-0.9v-1.3h0.9v-1.9l1.5-0.5v2.4h2V60h-2v6.7C30.6,67.4,30.8,67.8,31.3,67.8z"/>
		<path style="fill:#93C01F;" d="M38.6,66.7c0,0.4-0.1,0.8-0.2,1.1c-0.1,0.3-0.3,0.6-0.6,0.8c-0.2,0.2-0.5,0.4-0.8,0.5
			c-0.3,0.1-0.6,0.2-1,0.2c-0.4,0-0.7-0.1-1-0.2c-0.3-0.1-0.6-0.3-0.8-0.5c-0.2-0.2-0.4-0.5-0.5-0.8c-0.1-0.3-0.2-0.7-0.2-1.1V61
			c0-0.4,0.1-0.7,0.2-1c0.1-0.3,0.3-0.6,0.5-0.8c0.2-0.2,0.5-0.4,0.8-0.5c0.3-0.1,0.7-0.2,1-0.2c0.4,0,0.7,0.1,1,0.2
			c0.3,0.1,0.6,0.3,0.8,0.5c0.2,0.2,0.4,0.5,0.6,0.8c0.1,0.3,0.2,0.7,0.2,1V66.7z M37.1,61c0-0.4-0.1-0.6-0.3-0.8
			c-0.2-0.2-0.5-0.3-0.8-0.3c-0.3,0-0.6,0.1-0.8,0.3s-0.3,0.5-0.3,0.8v5.6c0,0.4,0.1,0.6,0.3,0.8s0.5,0.3,0.8,0.3
			c0.3,0,0.5-0.1,0.8-0.3c0.2-0.2,0.3-0.5,0.3-0.8V61z"/>
		<path style="fill:#93C01F;" d="M44.8,66.4c0,0.4-0.1,0.7-0.2,1.1c-0.1,0.3-0.3,0.6-0.5,0.9c-0.2,0.3-0.5,0.5-0.8,0.6
			c-0.3,0.2-0.7,0.2-1.2,0.2c-0.4,0-0.7-0.1-1-0.2c-0.3-0.1-0.6-0.3-0.8-0.5c-0.2-0.2-0.4-0.5-0.5-0.8c-0.1-0.3-0.2-0.7-0.2-1V66
			l1.5,0.3v0.4c0,0.3,0.1,0.6,0.3,0.8c0.2,0.2,0.5,0.3,0.8,0.3c0.8,0,1.2-0.4,1.2-1.1c0-0.3,0-0.5-0.1-0.7s-0.2-0.4-0.3-0.5
			c-0.2-0.2-0.4-0.4-0.6-0.6c-0.2-0.2-0.4-0.3-0.6-0.5c-0.2-0.2-0.4-0.3-0.6-0.5s-0.4-0.4-0.6-0.6c-0.2-0.3-0.4-0.6-0.6-1
			c-0.2-0.4-0.2-0.8-0.2-1.3c0-0.4,0.1-0.7,0.2-1c0.1-0.3,0.3-0.6,0.5-0.8c0.2-0.2,0.5-0.4,0.8-0.5c0.3-0.1,0.7-0.2,1-0.2
			c0.8,0,1.4,0.2,1.8,0.7c0.4,0.5,0.6,1.1,0.6,1.8v0.7l-1.5-0.3V61c0-0.3-0.1-0.6-0.3-0.8c-0.2-0.2-0.4-0.3-0.7-0.3
			c-0.3,0-0.6,0.1-0.7,0.3c-0.2,0.2-0.3,0.5-0.3,0.8c0,0.4,0.1,0.8,0.4,1.1c0.2,0.3,0.5,0.6,0.9,0.9c0.4,0.3,0.7,0.6,1.1,0.9
			c0.4,0.3,0.7,0.7,0.9,1c0.1,0.2,0.2,0.4,0.3,0.7C44.8,65.9,44.8,66.2,44.8,66.4z"/>
		<path style="fill:#93C01F;" d="M62.5,57.2H61V69h-1.5V57.2H58v-1.5h4.5V57.2z"/>
		<path style="fill:#93C01F;" d="M67.5,69h-1l-0.3-0.6c-0.1,0.2-0.3,0.4-0.6,0.6c-0.3,0.2-0.6,0.2-1,0.2c-0.3,0-0.5-0.1-0.8-0.2
			c-0.3-0.1-0.5-0.3-0.7-0.5c-0.2-0.2-0.4-0.5-0.5-0.8c-0.1-0.3-0.2-0.8-0.2-1.2c0-0.5,0.1-1,0.2-1.3s0.3-0.7,0.5-1
			c0.2-0.3,0.5-0.6,0.7-0.8c0.3-0.2,0.5-0.5,0.8-0.7s0.5-0.4,0.8-0.6c0.2-0.2,0.5-0.4,0.6-0.6V61c0-0.3-0.1-0.6-0.2-0.8
			c-0.1-0.2-0.4-0.3-0.7-0.3c-0.6,0-0.9,0.2-1.1,0.7l-1.3-0.8c0.1-0.2,0.2-0.3,0.4-0.5c0.1-0.2,0.3-0.3,0.5-0.4
			c0.2-0.1,0.4-0.2,0.7-0.3c0.2-0.1,0.5-0.1,0.9-0.1c0.7,0,1.3,0.2,1.7,0.7s0.6,1.1,0.6,1.8V69z M66.1,63.5
			c-0.2,0.1-0.4,0.3-0.7,0.4c-0.3,0.2-0.5,0.4-0.7,0.6c-0.2,0.2-0.4,0.5-0.6,0.8s-0.2,0.6-0.2,1c0,0.4,0.1,0.8,0.3,1
			c0.2,0.2,0.5,0.4,0.8,0.4c0.4,0,0.7-0.1,0.9-0.4c0.2-0.3,0.3-0.6,0.3-0.9V63.5z"/>
		<path style="fill:#93C01F;" d="M73.8,66.4c0,0.4-0.1,0.7-0.2,1.1c-0.1,0.3-0.3,0.6-0.5,0.9c-0.2,0.3-0.5,0.5-0.8,0.6
			c-0.3,0.2-0.7,0.2-1.2,0.2c-0.4,0-0.7-0.1-1-0.2c-0.3-0.1-0.6-0.3-0.8-0.5c-0.2-0.2-0.4-0.5-0.5-0.8c-0.1-0.3-0.2-0.7-0.2-1V66
			l1.5,0.3v0.4c0,0.3,0.1,0.6,0.3,0.8c0.2,0.2,0.5,0.3,0.8,0.3c0.8,0,1.2-0.4,1.2-1.1c0-0.3,0-0.5-0.1-0.7s-0.2-0.4-0.3-0.5
			c-0.2-0.2-0.4-0.4-0.6-0.6c-0.2-0.2-0.4-0.3-0.6-0.5c-0.2-0.2-0.4-0.3-0.6-0.5s-0.4-0.4-0.6-0.6c-0.2-0.3-0.4-0.6-0.6-1
			c-0.2-0.4-0.2-0.8-0.2-1.3c0-0.4,0.1-0.7,0.2-1c0.1-0.3,0.3-0.6,0.5-0.8c0.2-0.2,0.5-0.4,0.8-0.5c0.3-0.1,0.7-0.2,1-0.2
			c0.8,0,1.4,0.2,1.8,0.7s0.6,1.1,0.6,1.8v0.7l-1.5-0.3V61c0-0.3-0.1-0.6-0.3-0.8c-0.2-0.2-0.4-0.3-0.7-0.3c-0.3,0-0.6,0.1-0.7,0.3
			c-0.2,0.2-0.3,0.5-0.3,0.8c0,0.4,0.1,0.8,0.4,1.1c0.2,0.3,0.5,0.6,0.9,0.9c0.3,0.3,0.7,0.6,1.1,0.9c0.4,0.3,0.7,0.7,0.9,1
			c0.1,0.2,0.2,0.4,0.3,0.7C73.8,65.9,73.8,66.2,73.8,66.4z"/>
		<path style="fill:#93C01F;" d="M79.8,69h-1l-0.3-0.6c-0.1,0.2-0.3,0.4-0.6,0.6c-0.3,0.2-0.6,0.2-1,0.2c-0.3,0-0.5-0.1-0.8-0.2
			s-0.5-0.3-0.7-0.5c-0.2-0.2-0.4-0.5-0.5-0.8s-0.2-0.8-0.2-1.2c0-0.5,0.1-1,0.2-1.3c0.1-0.4,0.3-0.7,0.5-1c0.2-0.3,0.5-0.6,0.7-0.8
			c0.3-0.2,0.5-0.5,0.8-0.7c0.3-0.2,0.5-0.4,0.8-0.6c0.2-0.2,0.5-0.4,0.6-0.6V61c0-0.3-0.1-0.6-0.2-0.8s-0.4-0.3-0.7-0.3
			c-0.6,0-0.9,0.2-1.1,0.7l-1.3-0.8c0.1-0.2,0.2-0.3,0.4-0.5c0.1-0.2,0.3-0.3,0.5-0.4c0.2-0.1,0.4-0.2,0.7-0.3
			c0.2-0.1,0.5-0.1,0.9-0.1c0.7,0,1.3,0.2,1.7,0.7c0.4,0.4,0.6,1.1,0.6,1.8V69z M78.4,63.5c-0.2,0.1-0.4,0.3-0.7,0.4
			c-0.3,0.2-0.5,0.4-0.7,0.6s-0.4,0.5-0.6,0.8c-0.2,0.3-0.2,0.6-0.2,1c0,0.4,0.1,0.8,0.3,1c0.2,0.2,0.5,0.4,0.8,0.4
			c0.4,0,0.7-0.1,0.9-0.4c0.2-0.3,0.3-0.6,0.3-0.9V63.5z"/>
		<path style="fill:#93C01F;" d="M85.9,69h-1l-0.3-0.5c-0.1,0.2-0.2,0.3-0.5,0.5c-0.3,0.2-0.6,0.2-1.1,0.2c-0.7,0-1.2-0.2-1.6-0.7
			c-0.4-0.5-0.6-1.1-0.6-2V61c0-0.8,0.2-1.4,0.6-1.8c0.4-0.5,1-0.7,1.7-0.7c0.4,0,0.7,0,0.9,0.1c0.2,0.1,0.4,0.2,0.5,0.3v-3.3
			l1.5-0.5V69z M84.4,61c0-0.4-0.1-0.6-0.3-0.8s-0.5-0.3-0.8-0.3c-0.3,0-0.6,0.1-0.8,0.3s-0.3,0.5-0.3,0.8v5.6
			c0,0.4,0.1,0.6,0.3,0.8c0.2,0.2,0.5,0.3,0.8,0.3c0.3,0,0.5-0.1,0.8-0.3c0.2-0.2,0.3-0.5,0.3-0.8V61z"/>
		<path style="fill:#93C01F;" d="M92.1,66.7c0,0.4-0.1,0.8-0.2,1.1c-0.1,0.3-0.3,0.6-0.6,0.8c-0.2,0.2-0.5,0.4-0.8,0.5
			c-0.3,0.1-0.6,0.2-1,0.2c-0.4,0-0.7-0.1-1-0.2c-0.3-0.1-0.6-0.3-0.8-0.5c-0.2-0.2-0.4-0.5-0.5-0.8C87,67.4,87,67.1,87,66.7V61
			c0-0.4,0.1-0.7,0.2-1c0.1-0.3,0.3-0.6,0.5-0.8c0.2-0.2,0.5-0.4,0.8-0.5c0.3-0.1,0.7-0.2,1-0.2c0.4,0,0.7,0.1,1,0.2
			c0.3,0.1,0.6,0.3,0.8,0.5c0.2,0.2,0.4,0.5,0.6,0.8c0.1,0.3,0.2,0.7,0.2,1V66.7z M90.6,61c0-0.4-0.1-0.6-0.3-0.8
			c-0.2-0.2-0.5-0.3-0.8-0.3c-0.3,0-0.6,0.1-0.8,0.3s-0.3,0.5-0.3,0.8v5.6c0,0.4,0.1,0.6,0.3,0.8s0.5,0.3,0.8,0.3
			c0.3,0,0.5-0.1,0.8-0.3c0.2-0.2,0.3-0.5,0.3-0.8V61z"/>
		<path style="fill:#93C01F;" d="M95.8,58.5c0.4,0,0.7,0.1,0.9,0.3l-0.5,1.3c-0.1-0.1-0.2-0.1-0.5-0.1c-0.3,0-0.5,0.1-0.7,0.3
			c-0.2,0.2-0.3,0.5-0.3,0.8V69h-1.5V58.7h1l0.3,0.7c0.1-0.2,0.2-0.4,0.4-0.5C95.2,58.6,95.4,58.5,95.8,58.5z"/>
		<path style="fill:#93C01F;" d="M101.8,66.7c0,0.4-0.1,0.8-0.2,1.1c-0.1,0.3-0.3,0.6-0.5,0.8c-0.2,0.2-0.5,0.4-0.8,0.5
			c-0.3,0.1-0.6,0.2-1,0.2c-0.4,0-0.7-0.1-1-0.2c-0.3-0.1-0.6-0.3-0.8-0.5c-0.2-0.2-0.4-0.5-0.5-0.8c-0.1-0.3-0.2-0.7-0.2-1.1V61
			c0-0.4,0.1-0.8,0.2-1.1s0.3-0.6,0.5-0.8c0.2-0.2,0.5-0.4,0.8-0.5c0.3-0.1,0.7-0.2,1-0.2c0.3,0,0.7,0.1,1,0.2
			c0.3,0.1,0.6,0.3,0.8,0.5c0.2,0.2,0.4,0.5,0.6,0.8c0.1,0.3,0.2,0.7,0.2,1.2c0,0.7-0.1,1.3-0.2,1.8c-0.1,0.5-0.4,0.9-0.7,1.3
			c-0.3,0.4-0.7,0.7-1.1,1c-0.5,0.3-1,0.6-1.7,0.9v0.5c0,0.4,0.1,0.6,0.3,0.8c0.2,0.2,0.4,0.3,0.8,0.3c0.3,0,0.5-0.1,0.7-0.3
			c0.2-0.2,0.3-0.5,0.3-0.8v-0.2l1.5-0.5V66.7z M100.4,61.3c0-0.5-0.1-0.9-0.3-1.1s-0.5-0.3-0.8-0.3c-0.3,0-0.6,0.1-0.8,0.3
			c-0.2,0.2-0.3,0.5-0.3,0.8v3.5c0.5-0.2,0.8-0.4,1.1-0.6s0.5-0.4,0.7-0.7c0.2-0.2,0.3-0.5,0.3-0.8
			C100.4,62.1,100.4,61.7,100.4,61.3z"/>
		<path style="fill:#93C01F;" d="M108.1,66.4c0,0.4-0.1,0.7-0.2,1.1c-0.1,0.3-0.3,0.6-0.5,0.9c-0.2,0.3-0.5,0.5-0.8,0.6
			c-0.3,0.2-0.7,0.2-1.2,0.2c-0.4,0-0.7-0.1-1-0.2s-0.6-0.3-0.8-0.5c-0.2-0.2-0.4-0.5-0.5-0.8c-0.1-0.3-0.2-0.7-0.2-1V66l1.5,0.3
			v0.4c0,0.3,0.1,0.6,0.3,0.8c0.2,0.2,0.5,0.3,0.8,0.3c0.8,0,1.2-0.4,1.2-1.1c0-0.3,0-0.5-0.1-0.7c-0.1-0.2-0.2-0.4-0.3-0.5
			c-0.2-0.2-0.4-0.4-0.6-0.6c-0.2-0.2-0.4-0.3-0.6-0.5c-0.2-0.2-0.4-0.3-0.6-0.5s-0.4-0.4-0.6-0.6c-0.2-0.3-0.4-0.6-0.6-1
			c-0.2-0.4-0.2-0.8-0.2-1.3c0-0.4,0.1-0.7,0.2-1s0.3-0.6,0.5-0.8c0.2-0.2,0.5-0.4,0.8-0.5c0.3-0.1,0.7-0.2,1-0.2
			c0.8,0,1.4,0.2,1.8,0.7c0.4,0.5,0.6,1.1,0.6,1.8v0.7l-1.5-0.3V61c0-0.3-0.1-0.6-0.3-0.8c-0.2-0.2-0.4-0.3-0.7-0.3
			c-0.3,0-0.6,0.1-0.7,0.3c-0.2,0.2-0.3,0.5-0.3,0.8c0,0.4,0.1,0.8,0.4,1.1c0.2,0.3,0.5,0.6,0.9,0.9c0.3,0.3,0.7,0.6,1.1,0.9
			c0.4,0.3,0.7,0.7,0.9,1c0.1,0.2,0.2,0.4,0.3,0.7C108.1,65.9,108.1,66.2,108.1,66.4z"/>
		<path style="fill:#93C01F;" d="M117.4,69h-1.5l-0.2-1.6h-1.9l-0.2,1.6H112l2-13.3h1.4L117.4,69z M115.5,66l-0.8-5.8L114,66H115.5z
			"/>
		<path style="fill:#93C01F;" d="M123.5,66.4c0,0.4-0.1,0.7-0.2,1.1c-0.1,0.3-0.3,0.6-0.5,0.9c-0.2,0.3-0.5,0.5-0.8,0.6
			s-0.7,0.2-1.2,0.2c-0.4,0-0.7-0.1-1-0.2c-0.3-0.1-0.6-0.3-0.8-0.5c-0.2-0.2-0.4-0.5-0.5-0.8c-0.1-0.3-0.2-0.7-0.2-1V66l1.5,0.3
			v0.4c0,0.3,0.1,0.6,0.3,0.8c0.2,0.2,0.5,0.3,0.8,0.3c0.8,0,1.2-0.4,1.2-1.1c0-0.3,0-0.5-0.1-0.7c-0.1-0.2-0.2-0.4-0.3-0.5
			c-0.2-0.2-0.4-0.4-0.6-0.6c-0.2-0.2-0.4-0.3-0.6-0.5c-0.2-0.2-0.4-0.3-0.6-0.5s-0.4-0.4-0.6-0.6c-0.2-0.3-0.4-0.6-0.6-1
			c-0.2-0.4-0.2-0.8-0.2-1.3c0-0.4,0.1-0.7,0.2-1s0.3-0.6,0.5-0.8c0.2-0.2,0.5-0.4,0.8-0.5c0.3-0.1,0.7-0.2,1-0.2
			c0.8,0,1.4,0.2,1.8,0.7c0.4,0.5,0.6,1.1,0.6,1.8v0.7l-1.5-0.3V61c0-0.3-0.1-0.6-0.3-0.8c-0.2-0.2-0.4-0.3-0.7-0.3
			c-0.3,0-0.6,0.1-0.7,0.3c-0.2,0.2-0.3,0.5-0.3,0.8c0,0.4,0.1,0.8,0.4,1.1c0.2,0.3,0.5,0.6,0.9,0.9c0.4,0.3,0.7,0.6,1.1,0.9
			c0.4,0.3,0.7,0.7,0.9,1c0.1,0.2,0.2,0.4,0.3,0.7C123.5,65.9,123.5,66.2,123.5,66.4z"/>
		<path style="fill:#93C01F;" d="M129.6,66.7c0,0.4-0.1,0.8-0.2,1.1c-0.1,0.3-0.3,0.6-0.6,0.8c-0.2,0.2-0.5,0.4-0.8,0.5
			c-0.3,0.1-0.6,0.2-1,0.2c-0.4,0-0.7-0.1-1-0.2c-0.3-0.1-0.6-0.3-0.8-0.5c-0.2-0.2-0.4-0.5-0.5-0.8c-0.1-0.3-0.2-0.7-0.2-1.1V61
			c0-0.4,0.1-0.7,0.2-1s0.3-0.6,0.5-0.8c0.2-0.2,0.5-0.4,0.8-0.5c0.3-0.1,0.7-0.2,1-0.2c0.3,0,0.7,0.1,1,0.2
			c0.3,0.1,0.6,0.3,0.8,0.5c0.2,0.2,0.4,0.5,0.6,0.8s0.2,0.7,0.2,1V66.7z M128.1,61c0-0.4-0.1-0.6-0.3-0.8s-0.5-0.3-0.8-0.3
			c-0.3,0-0.6,0.1-0.8,0.3c-0.2,0.2-0.3,0.5-0.3,0.8v5.6c0,0.4,0.1,0.6,0.3,0.8c0.2,0.2,0.5,0.3,0.8,0.3c0.3,0,0.5-0.1,0.8-0.3
			s0.3-0.5,0.3-0.8V61z"/>
		<path style="fill:#93C01F;" d="M133.2,59.9c-0.3,0-0.6,0.1-0.8,0.3c-0.2,0.2-0.3,0.5-0.3,0.8v5.6c0,0.4,0.1,0.6,0.3,0.8
			c0.2,0.2,0.5,0.3,0.8,0.3c0.3,0,0.5-0.1,0.8-0.3c0.2-0.2,0.3-0.5,0.3-0.8v-0.2l1.5-0.5v0.7c0,0.4-0.1,0.8-0.2,1.1
			c-0.1,0.3-0.3,0.6-0.6,0.8c-0.2,0.2-0.5,0.4-0.8,0.5c-0.3,0.1-0.6,0.2-1,0.2c-0.4,0-0.7-0.1-1-0.2c-0.3-0.1-0.6-0.3-0.8-0.5
			c-0.2-0.2-0.4-0.5-0.5-0.8c-0.1-0.3-0.2-0.7-0.2-1.1V61c0-0.5,0.1-0.9,0.2-1.2c0.1-0.3,0.3-0.6,0.5-0.8c0.2-0.2,0.5-0.3,0.8-0.4
			c0.3-0.1,0.7-0.1,1-0.1c0.3,0,0.7,0,1,0.1c0.3,0.1,0.6,0.2,0.8,0.4c0.2,0.2,0.4,0.5,0.6,0.8s0.2,0.7,0.2,1.2v0.4h-1.5V61
			c0-0.4-0.1-0.6-0.3-0.8S133.5,59.9,133.2,59.9z"/>
		<path style="fill:#93C01F;" d="M138.3,56.1c0,0.3-0.1,0.5-0.2,0.7c-0.1,0.2-0.3,0.3-0.5,0.3c-0.2,0-0.4-0.1-0.6-0.3
			s-0.2-0.4-0.2-0.7c0-0.2,0.1-0.4,0.2-0.6s0.3-0.3,0.6-0.3c0.2,0,0.4,0.1,0.6,0.3C138.2,55.7,138.3,55.9,138.3,56.1z M138.2,69
			h-1.5V58.7h1.5V69z"/>
		<path style="fill:#93C01F;" d="M144.4,69h-1l-0.3-0.6c-0.1,0.2-0.3,0.4-0.6,0.6c-0.3,0.2-0.6,0.2-1,0.2c-0.3,0-0.5-0.1-0.8-0.2
			s-0.5-0.3-0.7-0.5c-0.2-0.2-0.4-0.5-0.5-0.8c-0.1-0.3-0.2-0.8-0.2-1.2c0-0.5,0.1-1,0.2-1.3c0.1-0.4,0.3-0.7,0.5-1
			c0.2-0.3,0.5-0.6,0.7-0.8c0.3-0.2,0.5-0.5,0.8-0.7s0.5-0.4,0.8-0.6c0.2-0.2,0.5-0.4,0.6-0.6V61c0-0.3-0.1-0.6-0.2-0.8
			s-0.4-0.3-0.7-0.3c-0.6,0-0.9,0.2-1.1,0.7l-1.3-0.8c0.1-0.2,0.2-0.3,0.4-0.5s0.3-0.3,0.5-0.4c0.2-0.1,0.4-0.2,0.7-0.3
			c0.2-0.1,0.5-0.1,0.9-0.1c0.7,0,1.3,0.2,1.7,0.7s0.6,1.1,0.6,1.8V69z M142.9,63.5c-0.2,0.1-0.4,0.3-0.7,0.4
			c-0.3,0.2-0.5,0.4-0.7,0.6c-0.2,0.2-0.4,0.5-0.6,0.8c-0.2,0.3-0.2,0.6-0.2,1c0,0.4,0.1,0.8,0.3,1c0.2,0.2,0.5,0.4,0.8,0.4
			c0.4,0,0.7-0.1,0.9-0.4c0.2-0.3,0.3-0.6,0.3-0.9V63.5z"/>
		<path style="fill:#93C01F;" d="M150.4,69h-1l-0.3-0.5c-0.1,0.2-0.2,0.3-0.5,0.5c-0.3,0.2-0.6,0.2-1.1,0.2c-0.7,0-1.2-0.2-1.6-0.7
			c-0.4-0.5-0.6-1.1-0.6-2V61c0-0.8,0.2-1.4,0.6-1.8c0.4-0.5,1-0.7,1.7-0.7c0.4,0,0.7,0,0.9,0.1c0.2,0.1,0.4,0.2,0.5,0.3v-3.3
			l1.5-0.5V69z M148.9,61c0-0.4-0.1-0.6-0.3-0.8c-0.2-0.2-0.5-0.3-0.8-0.3c-0.3,0-0.6,0.1-0.8,0.3c-0.2,0.2-0.3,0.5-0.3,0.8v5.6
			c0,0.4,0.1,0.6,0.3,0.8c0.2,0.2,0.5,0.3,0.8,0.3c0.3,0,0.5-0.1,0.8-0.3c0.2-0.2,0.3-0.5,0.3-0.8V61z"/>
		<path style="fill:#93C01F;" d="M156.7,66.7c0,0.4-0.1,0.8-0.2,1.1c-0.1,0.3-0.3,0.6-0.6,0.8c-0.2,0.2-0.5,0.4-0.8,0.5
			c-0.3,0.1-0.6,0.2-1,0.2c-0.4,0-0.7-0.1-1-0.2c-0.3-0.1-0.6-0.3-0.8-0.5c-0.2-0.2-0.4-0.5-0.5-0.8c-0.1-0.3-0.2-0.7-0.2-1.1V61
			c0-0.4,0.1-0.7,0.2-1c0.1-0.3,0.3-0.6,0.5-0.8c0.2-0.2,0.5-0.4,0.8-0.5c0.3-0.1,0.7-0.2,1-0.2c0.4,0,0.7,0.1,1,0.2
			c0.3,0.1,0.6,0.3,0.8,0.5c0.2,0.2,0.4,0.5,0.6,0.8c0.1,0.3,0.2,0.7,0.2,1V66.7z M155.2,61c0-0.4-0.1-0.6-0.3-0.8
			c-0.2-0.2-0.5-0.3-0.8-0.3c-0.3,0-0.6,0.1-0.8,0.3S153,60.7,153,61v5.6c0,0.4,0.1,0.6,0.3,0.8s0.5,0.3,0.8,0.3
			c0.3,0,0.5-0.1,0.8-0.3c0.2-0.2,0.3-0.5,0.3-0.8V61z"/>
		<path style="fill:#93C01F;" d="M162.9,66.4c0,0.4-0.1,0.7-0.2,1.1s-0.3,0.6-0.5,0.9c-0.2,0.3-0.5,0.5-0.8,0.6
			c-0.3,0.2-0.7,0.2-1.2,0.2c-0.4,0-0.7-0.1-1-0.2c-0.3-0.1-0.6-0.3-0.8-0.5c-0.2-0.2-0.4-0.5-0.5-0.8c-0.1-0.3-0.2-0.7-0.2-1V66
			l1.5,0.3v0.4c0,0.3,0.1,0.6,0.3,0.8c0.2,0.2,0.5,0.3,0.8,0.3c0.8,0,1.2-0.4,1.2-1.1c0-0.3,0-0.5-0.1-0.7c-0.1-0.2-0.2-0.4-0.3-0.5
			c-0.2-0.2-0.4-0.4-0.6-0.6c-0.2-0.2-0.4-0.3-0.6-0.5c-0.2-0.2-0.4-0.3-0.6-0.5s-0.4-0.4-0.6-0.6c-0.2-0.3-0.4-0.6-0.6-1
			c-0.2-0.4-0.2-0.8-0.2-1.3c0-0.4,0.1-0.7,0.2-1s0.3-0.6,0.5-0.8c0.2-0.2,0.5-0.4,0.8-0.5c0.3-0.1,0.7-0.2,1-0.2
			c0.8,0,1.4,0.2,1.8,0.7c0.4,0.5,0.6,1.1,0.6,1.8v0.7l-1.5-0.3V61c0-0.3-0.1-0.6-0.3-0.8c-0.2-0.2-0.4-0.3-0.7-0.3
			c-0.3,0-0.6,0.1-0.7,0.3c-0.2,0.2-0.3,0.5-0.3,0.8c0,0.4,0.1,0.8,0.4,1.1c0.2,0.3,0.5,0.6,0.9,0.9c0.3,0.3,0.7,0.6,1.1,0.9
			c0.4,0.3,0.7,0.7,0.9,1c0.1,0.2,0.2,0.4,0.3,0.7C162.9,65.9,162.9,66.2,162.9,66.4z"/>
	</g>
	<path style="fill:#DDDB00;" d="M101.6,71.9c0,0-16.2,7-50.5,7c-34.3,0-49-8.5-49-8.5s19.6,5.4,47.4,5.4
		C80.7,75.8,101.6,71.9,101.6,71.9z"/>
	<path style="fill:#DDDB00;" d="M50.8,77.2c-0.3-1.3-0.5-2.7-0.8-4.1c-9.2-46.3,6.6-71.5,6.6-71.5S44,29,52.4,70.7
		c0.4,2,0.8,3.9,1.1,5.8"/>
	<path style="fill:#DDDB00;" d="M52.9,77.2c0.3-1.3,0.5-2.7,0.8-4.1c9.2-46.3-6.6-71.5-6.6-71.5S59.7,29,51.3,70.7
		c-0.4,2-0.8,3.9-1.1,5.8"/>
</g>
</svg>
