<?xml version="1.0" encoding="utf-8"?>
<!-- Generator: Adobe Illustrator 16.0.0, SVG Export Plug-In . SVG Version: 6.00 Build 0)  -->
<!DOCTYPE svg PUBLIC "-//W3C//DTD SVG 1.1//EN" "http://www.w3.org/Graphics/SVG/1.1/DTD/svg11.dtd">
<svg version="1.1" id="Capa_1" xmlns="http://www.w3.org/2000/svg" xmlns:xlink="http://www.w3.org/1999/xlink" x="0px" y="0px"
	 width="163.9px" height="82.7px" viewBox="0 0 163.9 82.7" style="enable-background:new 0 0 163.9 82.7;" xml:space="preserve">
<g>
	<g>
		<path style="fill:#93C01F;" d="M13.9,62.8c0,0.4-0.1,0.7-0.2,1c-0.1,0.3-0.3,0.6-0.5,0.9c-0.2,0.3-0.5,0.4-0.8,0.6
			c-0.3,0.1-0.7,0.2-1.1,0.2h-1.2V71H8.7V57.8h2.7c0.8,0,1.4,0.2,1.9,0.7s0.6,1.1,0.6,1.9V62.8z M12.4,60.7c0-0.5-0.1-0.9-0.3-1.1
			c-0.2-0.2-0.5-0.3-1-0.3h-0.9V64h0.9c0.4,0,0.7-0.1,0.9-0.3c0.2-0.2,0.3-0.6,0.3-1.1L12.4,60.7L12.4,60.7z"/>
		<path style="fill:#93C01F;" d="M19.7,68.7c0,0.4-0.1,0.8-0.2,1.1c-0.1,0.3-0.3,0.6-0.5,0.8c-0.2,0.2-0.5,0.4-0.8,0.5
			c-0.3,0.1-0.6,0.2-1,0.2c-0.4,0-0.7-0.1-1-0.2c-0.3-0.1-0.6-0.3-0.8-0.5c-0.2-0.2-0.4-0.5-0.5-0.8c-0.1-0.3-0.2-0.7-0.2-1.1V63
			c0-0.4,0.1-0.8,0.2-1.1c0.1-0.3,0.3-0.6,0.5-0.8c0.2-0.2,0.5-0.4,0.8-0.5c0.3-0.1,0.7-0.2,1-0.2c0.4,0,0.7,0.1,1,0.2
			c0.3,0.1,0.6,0.3,0.8,0.5c0.2,0.2,0.4,0.5,0.6,0.8c0.1,0.3,0.2,0.7,0.2,1.2c0,0.7-0.1,1.3-0.2,1.8c-0.1,0.5-0.4,0.9-0.7,1.3
			c-0.3,0.4-0.7,0.7-1.1,1c-0.5,0.3-1,0.6-1.7,0.9v0.5c0,0.4,0.1,0.6,0.3,0.8c0.2,0.2,0.4,0.3,0.8,0.3c0.3,0,0.5-0.1,0.7-0.3
			c0.2-0.2,0.3-0.5,0.3-0.8v-0.2l1.5-0.5V68.7z M18.3,63.3c0-0.5-0.1-0.9-0.3-1.1c-0.2-0.2-0.5-0.3-0.8-0.3c-0.3,0-0.6,0.1-0.8,0.3
			c-0.2,0.2-0.3,0.5-0.3,0.8v3.5c0.5-0.2,0.8-0.4,1.1-0.6c0.3-0.2,0.5-0.4,0.7-0.7c0.2-0.2,0.3-0.5,0.3-0.8S18.3,63.7,18.3,63.3z"/>
		<path style="fill:#93C01F;" d="M23.4,60.5c0.4,0,0.7,0.1,0.9,0.3l-0.5,1.3C23.7,62,23.6,62,23.3,62s-0.5,0.1-0.7,0.3
			c-0.2,0.2-0.3,0.5-0.3,0.8V71h-1.5V60.7h1l0.3,0.7c0.1-0.2,0.2-0.4,0.4-0.5C22.8,60.6,23.1,60.5,23.4,60.5z"/>
		<path style="fill:#93C01F;" d="M26.4,58.1c0,0.3-0.1,0.5-0.2,0.7c-0.1,0.2-0.3,0.3-0.5,0.3c-0.2,0-0.4-0.1-0.6-0.3
			c-0.1-0.2-0.2-0.4-0.2-0.7c0-0.2,0.1-0.4,0.2-0.6c0.1-0.2,0.3-0.3,0.6-0.3c0.2,0,0.4,0.1,0.6,0.3C26.3,57.7,26.4,57.9,26.4,58.1z
			 M26.3,71h-1.5V60.7h1.5V71z"/>
		<path style="fill:#93C01F;" d="M30.4,69.8c0.3,0,0.5-0.1,0.7-0.3l1,1.1c-0.2,0.2-0.4,0.4-0.7,0.5c-0.3,0.1-0.6,0.2-0.9,0.2
			c-0.8,0-1.4-0.2-1.7-0.7s-0.6-1.1-0.6-1.9V62h-0.9v-1.3h0.9v-1.9l1.5-0.5v2.4h2V62h-2v6.7C29.7,69.4,29.9,69.8,30.4,69.8z"/>
		<path style="fill:#93C01F;" d="M37.7,68.7c0,0.4-0.1,0.8-0.2,1.1c-0.1,0.3-0.3,0.6-0.6,0.8c-0.2,0.2-0.5,0.4-0.8,0.5
			c-0.3,0.1-0.6,0.2-1,0.2c-0.4,0-0.7-0.1-1-0.2c-0.3-0.1-0.6-0.3-0.8-0.5c-0.2-0.2-0.4-0.5-0.5-0.8c-0.1-0.3-0.2-0.7-0.2-1.1V63
			c0-0.4,0.1-0.7,0.2-1c0.1-0.3,0.3-0.6,0.5-0.8c0.2-0.2,0.5-0.4,0.8-0.5c0.3-0.1,0.7-0.2,1-0.2c0.4,0,0.7,0.1,1,0.2
			c0.3,0.1,0.6,0.3,0.8,0.5c0.2,0.2,0.4,0.5,0.6,0.8c0.1,0.3,0.2,0.7,0.2,1V68.7z M36.2,63c0-0.4-0.1-0.6-0.3-0.8
			c-0.2-0.2-0.5-0.3-0.8-0.3s-0.6,0.1-0.8,0.3C34.1,62.4,34,62.7,34,63v5.6c0,0.4,0.1,0.6,0.3,0.8s0.5,0.3,0.8,0.3s0.5-0.1,0.8-0.3
			c0.2-0.2,0.3-0.5,0.3-0.8V63z"/>
		<path style="fill:#93C01F;" d="M43.9,68.4c0,0.4-0.1,0.7-0.2,1.1c-0.1,0.3-0.3,0.6-0.5,0.9c-0.2,0.3-0.5,0.5-0.8,0.6
			c-0.3,0.2-0.7,0.2-1.2,0.2c-0.4,0-0.7-0.1-1-0.2c-0.3-0.1-0.6-0.3-0.8-0.5c-0.2-0.2-0.4-0.5-0.5-0.8c-0.1-0.3-0.2-0.7-0.2-1V68
			l1.5,0.3v0.4c0,0.3,0.1,0.6,0.3,0.8c0.2,0.2,0.5,0.3,0.8,0.3c0.8,0,1.2-0.4,1.2-1.1c0-0.3,0-0.5-0.1-0.7c-0.1-0.2-0.2-0.4-0.3-0.5
			c-0.2-0.2-0.4-0.4-0.6-0.6s-0.4-0.3-0.6-0.5c-0.2-0.2-0.4-0.3-0.6-0.5s-0.4-0.4-0.6-0.6c-0.2-0.3-0.4-0.6-0.6-1s-0.2-0.8-0.2-1.3
			c0-0.4,0.1-0.7,0.2-1c0.1-0.3,0.3-0.6,0.5-0.8c0.2-0.2,0.5-0.4,0.8-0.5c0.3-0.1,0.7-0.2,1-0.2c0.8,0,1.4,0.2,1.8,0.7
			c0.4,0.5,0.6,1.1,0.6,1.8v0.7l-1.5-0.3V63c0-0.3-0.1-0.6-0.3-0.8c-0.2-0.2-0.4-0.3-0.7-0.3s-0.6,0.1-0.7,0.3
			c-0.2,0.2-0.3,0.5-0.3,0.8c0,0.4,0.1,0.8,0.4,1.1c0.2,0.3,0.5,0.6,0.9,0.9c0.4,0.3,0.7,0.6,1.1,0.9c0.4,0.3,0.7,0.7,0.9,1
			c0.1,0.2,0.2,0.4,0.3,0.7C43.9,67.9,43.9,68.2,43.9,68.4z"/>
		<path style="fill:#93C01F;" d="M61.6,59.2h-1.5V71h-1.5V59.2h-1.5v-1.5h4.5V59.2z"/>
		<path style="fill:#93C01F;" d="M66.6,71h-1l-0.3-0.6c-0.1,0.2-0.3,0.4-0.6,0.6c-0.3,0.2-0.6,0.2-1,0.2c-0.3,0-0.5-0.1-0.8-0.2
			c-0.3-0.1-0.5-0.3-0.7-0.5c-0.2-0.2-0.4-0.5-0.5-0.8c-0.1-0.3-0.2-0.8-0.2-1.2c0-0.5,0.1-1,0.2-1.3c0.1-0.3,0.3-0.7,0.5-1
			c0.2-0.3,0.5-0.6,0.7-0.8c0.3-0.2,0.5-0.5,0.8-0.7c0.3-0.2,0.5-0.4,0.8-0.6c0.2-0.2,0.5-0.4,0.6-0.6V63c0-0.3-0.1-0.6-0.2-0.8
			c-0.1-0.2-0.4-0.3-0.7-0.3c-0.6,0-0.9,0.2-1.1,0.7l-1.3-0.8c0.1-0.2,0.2-0.3,0.4-0.5c0.1-0.2,0.3-0.3,0.5-0.4
			c0.2-0.1,0.4-0.2,0.7-0.3c0.2-0.1,0.5-0.1,0.9-0.1c0.7,0,1.3,0.2,1.7,0.7c0.4,0.5,0.6,1.1,0.6,1.8V71z M65.2,65.5
			c-0.2,0.1-0.4,0.3-0.7,0.4c-0.3,0.2-0.5,0.4-0.7,0.6c-0.2,0.2-0.4,0.5-0.6,0.8c-0.2,0.3-0.2,0.6-0.2,1s0.1,0.8,0.3,1
			c0.2,0.2,0.5,0.4,0.8,0.4c0.4,0,0.7-0.1,0.9-0.4c0.2-0.3,0.3-0.6,0.3-0.9L65.2,65.5L65.2,65.5z"/>
		<path style="fill:#93C01F;" d="M72.9,68.4c0,0.4-0.1,0.7-0.2,1.1c-0.1,0.3-0.3,0.6-0.5,0.9c-0.2,0.3-0.5,0.5-0.8,0.6
			c-0.3,0.2-0.7,0.2-1.2,0.2c-0.4,0-0.7-0.1-1-0.2c-0.3-0.1-0.6-0.3-0.8-0.5c-0.2-0.2-0.4-0.5-0.5-0.8c-0.1-0.3-0.2-0.7-0.2-1V68
			l1.5,0.3v0.4c0,0.3,0.1,0.6,0.3,0.8c0.2,0.2,0.5,0.3,0.8,0.3c0.8,0,1.2-0.4,1.2-1.1c0-0.3,0-0.5-0.1-0.7c-0.1-0.2-0.2-0.4-0.3-0.5
			c-0.2-0.2-0.4-0.4-0.6-0.6s-0.4-0.3-0.6-0.5c-0.2-0.2-0.4-0.3-0.6-0.5s-0.4-0.4-0.6-0.6c-0.2-0.3-0.4-0.6-0.6-1s-0.2-0.8-0.2-1.3
			c0-0.4,0.1-0.7,0.2-1c0.1-0.3,0.3-0.6,0.5-0.8c0.2-0.2,0.5-0.4,0.8-0.5c0.3-0.1,0.7-0.2,1-0.2c0.8,0,1.4,0.2,1.8,0.7
			c0.4,0.5,0.6,1.1,0.6,1.8v0.7l-1.5-0.3V63c0-0.3-0.1-0.6-0.3-0.8c-0.2-0.2-0.4-0.3-0.7-0.3s-0.6,0.1-0.7,0.3
			c-0.2,0.2-0.3,0.5-0.3,0.8c0,0.4,0.1,0.8,0.4,1.1c0.2,0.3,0.5,0.6,0.9,0.9c0.3,0.3,0.7,0.6,1.1,0.9c0.4,0.3,0.7,0.7,0.9,1
			c0.1,0.2,0.2,0.4,0.3,0.7C72.9,67.9,72.9,68.2,72.9,68.4z"/>
		<path style="fill:#93C01F;" d="M78.9,71h-1l-0.3-0.6c-0.1,0.2-0.3,0.4-0.6,0.6c-0.3,0.2-0.6,0.2-1,0.2c-0.3,0-0.5-0.1-0.8-0.2
			c-0.3-0.1-0.5-0.3-0.7-0.5c-0.2-0.2-0.4-0.5-0.5-0.8c-0.1-0.3-0.2-0.8-0.2-1.2c0-0.5,0.1-1,0.2-1.3c0.1-0.4,0.3-0.7,0.5-1
			c0.2-0.3,0.5-0.6,0.7-0.8c0.3-0.2,0.5-0.5,0.8-0.7c0.3-0.2,0.5-0.4,0.8-0.6c0.2-0.2,0.5-0.4,0.6-0.6V63c0-0.3-0.1-0.6-0.2-0.8
			c-0.1-0.2-0.4-0.3-0.7-0.3c-0.6,0-0.9,0.2-1.1,0.7l-1.3-0.8c0.1-0.2,0.2-0.3,0.4-0.5c0.1-0.2,0.3-0.3,0.5-0.4s0.4-0.2,0.7-0.3
			c0.2-0.1,0.5-0.1,0.9-0.1c0.7,0,1.3,0.2,1.7,0.7c0.4,0.4,0.6,1.1,0.6,1.8V71z M77.5,65.5c-0.2,0.1-0.4,0.3-0.7,0.4
			c-0.3,0.2-0.5,0.4-0.7,0.6c-0.2,0.2-0.4,0.5-0.6,0.8c-0.2,0.3-0.2,0.6-0.2,1s0.1,0.8,0.3,1c0.2,0.2,0.5,0.4,0.8,0.4
			c0.4,0,0.7-0.1,0.9-0.4c0.2-0.3,0.3-0.6,0.3-0.9L77.5,65.5L77.5,65.5z"/>
		<path style="fill:#93C01F;" d="M85,71h-1l-0.3-0.5c-0.1,0.2-0.2,0.3-0.5,0.5c-0.3,0.2-0.6,0.2-1.1,0.2c-0.7,0-1.2-0.2-1.6-0.7
			c-0.4-0.5-0.6-1.1-0.6-2V63c0-0.8,0.2-1.4,0.6-1.8c0.4-0.5,1-0.7,1.7-0.7c0.4,0,0.7,0,0.9,0.1c0.2,0.1,0.4,0.2,0.5,0.3v-3.3
			l1.5-0.5L85,71L85,71z M83.5,63c0-0.4-0.1-0.6-0.3-0.8c-0.2-0.2-0.5-0.3-0.8-0.3c-0.3,0-0.6,0.1-0.8,0.3c-0.2,0.2-0.3,0.5-0.3,0.8
			v5.6c0,0.4,0.1,0.6,0.3,0.8s0.5,0.3,0.8,0.3c0.3,0,0.5-0.1,0.8-0.3c0.2-0.2,0.3-0.5,0.3-0.8V63z"/>
		<path style="fill:#93C01F;" d="M91.2,68.7c0,0.4-0.1,0.8-0.2,1.1c-0.1,0.3-0.3,0.6-0.6,0.8c-0.2,0.2-0.5,0.4-0.8,0.5
			c-0.3,0.1-0.6,0.2-1,0.2c-0.4,0-0.7-0.1-1-0.2c-0.3-0.1-0.6-0.3-0.8-0.5c-0.2-0.2-0.4-0.5-0.5-0.8c-0.2-0.4-0.2-0.7-0.2-1.1V63
			c0-0.4,0.1-0.7,0.2-1c0.1-0.3,0.3-0.6,0.5-0.8c0.2-0.2,0.5-0.4,0.8-0.5c0.3-0.1,0.7-0.2,1-0.2c0.4,0,0.7,0.1,1,0.2
			c0.3,0.1,0.6,0.3,0.8,0.5c0.2,0.2,0.4,0.5,0.6,0.8c0.1,0.3,0.2,0.7,0.2,1V68.7z M89.7,63c0-0.4-0.1-0.6-0.3-0.8
			c-0.2-0.2-0.5-0.3-0.8-0.3S88,62,87.8,62.2c-0.2,0.2-0.3,0.5-0.3,0.8v5.6c0,0.4,0.1,0.6,0.3,0.8s0.5,0.3,0.8,0.3s0.5-0.1,0.8-0.3
			c0.2-0.2,0.3-0.5,0.3-0.8V63z"/>
		<path style="fill:#93C01F;" d="M94.9,60.5c0.4,0,0.7,0.1,0.9,0.3l-0.5,1.3C95.2,62,95.1,62,94.8,62s-0.5,0.1-0.7,0.3
			c-0.2,0.2-0.3,0.5-0.3,0.8V71h-1.5V60.7h1l0.3,0.7c0.1-0.2,0.2-0.4,0.4-0.5C94.3,60.6,94.5,60.5,94.9,60.5z"/>
		<path style="fill:#93C01F;" d="M100.9,68.7c0,0.4-0.1,0.8-0.2,1.1c-0.1,0.3-0.3,0.6-0.5,0.8c-0.2,0.2-0.5,0.4-0.8,0.5
			c-0.3,0.1-0.6,0.2-1,0.2c-0.4,0-0.7-0.1-1-0.2c-0.3-0.1-0.6-0.3-0.8-0.5c-0.2-0.2-0.4-0.5-0.5-0.8c-0.1-0.3-0.2-0.7-0.2-1.1V63
			c0-0.4,0.1-0.8,0.2-1.1c0.1-0.3,0.3-0.6,0.5-0.8c0.2-0.2,0.5-0.4,0.8-0.5c0.3-0.1,0.7-0.2,1-0.2c0.3,0,0.7,0.1,1,0.2
			c0.3,0.1,0.6,0.3,0.8,0.5c0.2,0.2,0.4,0.5,0.6,0.8c0.1,0.3,0.2,0.7,0.2,1.2c0,0.7-0.1,1.3-0.2,1.8s-0.4,0.9-0.7,1.3
			c-0.3,0.4-0.7,0.7-1.1,1c-0.5,0.3-1,0.6-1.7,0.9v0.5c0,0.4,0.1,0.6,0.3,0.8s0.4,0.3,0.8,0.3c0.3,0,0.5-0.1,0.7-0.3
			s0.3-0.5,0.3-0.8v-0.2l1.5-0.5V68.7L100.9,68.7z M99.5,63.3c0-0.5-0.1-0.9-0.3-1.1c-0.2-0.2-0.5-0.3-0.8-0.3
			c-0.3,0-0.6,0.1-0.8,0.3c-0.2,0.2-0.3,0.5-0.3,0.8v3.5c0.5-0.2,0.8-0.4,1.1-0.6c0.3-0.2,0.5-0.4,0.7-0.7c0.2-0.2,0.3-0.5,0.3-0.8
			C99.5,64.1,99.5,63.7,99.5,63.3z"/>
		<path style="fill:#93C01F;" d="M107.2,68.4c0,0.4-0.1,0.7-0.2,1.1c-0.1,0.3-0.3,0.6-0.5,0.9s-0.5,0.5-0.8,0.6
			c-0.3,0.2-0.7,0.2-1.2,0.2c-0.4,0-0.7-0.1-1-0.2s-0.6-0.3-0.8-0.5c-0.2-0.2-0.4-0.5-0.5-0.8c-0.1-0.3-0.2-0.7-0.2-1V68l1.5,0.3
			v0.4c0,0.3,0.1,0.6,0.3,0.8c0.2,0.2,0.5,0.3,0.8,0.3c0.8,0,1.2-0.4,1.2-1.1c0-0.3,0-0.5-0.1-0.7c-0.1-0.2-0.2-0.4-0.3-0.5
			c-0.2-0.2-0.4-0.4-0.6-0.6s-0.4-0.3-0.6-0.5c-0.2-0.2-0.4-0.3-0.6-0.5s-0.4-0.4-0.6-0.6c-0.2-0.3-0.4-0.6-0.6-1
			c-0.2-0.4-0.2-0.8-0.2-1.3c0-0.4,0.1-0.7,0.2-1c0.1-0.3,0.3-0.6,0.5-0.8c0.2-0.2,0.5-0.4,0.8-0.5c0.3-0.1,0.7-0.2,1-0.2
			c0.8,0,1.4,0.2,1.8,0.7c0.4,0.5,0.6,1.1,0.6,1.8v0.7l-1.5-0.3V63c0-0.3-0.1-0.6-0.3-0.8c-0.2-0.2-0.4-0.3-0.7-0.3
			s-0.6,0.1-0.7,0.3c-0.2,0.2-0.3,0.5-0.3,0.8c0,0.4,0.1,0.8,0.4,1.1c0.2,0.3,0.5,0.6,0.9,0.9c0.3,0.3,0.7,0.6,1.1,0.9
			c0.4,0.3,0.7,0.7,0.9,1c0.1,0.2,0.2,0.4,0.3,0.7C107.2,67.9,107.2,68.2,107.2,68.4z"/>
		<path style="fill:#93C01F;" d="M116.5,71H115l-0.2-1.6h-1.9l-0.2,1.6h-1.6l2-13.3h1.4L116.5,71z M114.6,68l-0.8-5.8l-0.7,5.8
			H114.6z"/>
		<path style="fill:#93C01F;" d="M122.6,68.4c0,0.4-0.1,0.7-0.2,1.1c-0.1,0.3-0.3,0.6-0.5,0.9c-0.2,0.3-0.5,0.5-0.8,0.6
			s-0.7,0.2-1.2,0.2c-0.4,0-0.7-0.1-1-0.2c-0.3-0.1-0.6-0.3-0.8-0.5c-0.2-0.2-0.4-0.5-0.5-0.8c-0.1-0.3-0.2-0.7-0.2-1V68l1.5,0.3
			v0.4c0,0.3,0.1,0.6,0.3,0.8c0.2,0.2,0.5,0.3,0.8,0.3c0.8,0,1.2-0.4,1.2-1.1c0-0.3,0-0.5-0.1-0.7c-0.1-0.2-0.2-0.4-0.3-0.5
			c-0.2-0.2-0.4-0.4-0.6-0.6c-0.2-0.2-0.4-0.3-0.6-0.5s-0.4-0.3-0.6-0.5s-0.4-0.4-0.6-0.6c-0.2-0.3-0.4-0.6-0.6-1s-0.2-0.8-0.2-1.3
			c0-0.4,0.1-0.7,0.2-1c0.1-0.3,0.3-0.6,0.5-0.8c0.2-0.2,0.5-0.4,0.8-0.5c0.3-0.1,0.7-0.2,1-0.2c0.8,0,1.4,0.2,1.8,0.7
			c0.4,0.5,0.6,1.1,0.6,1.8v0.7l-1.5-0.3V63c0-0.3-0.1-0.6-0.3-0.8c-0.2-0.2-0.4-0.3-0.7-0.3s-0.6,0.1-0.7,0.3
			c-0.2,0.2-0.3,0.5-0.3,0.8c0,0.4,0.1,0.8,0.4,1.1c0.2,0.3,0.5,0.6,0.9,0.9c0.4,0.3,0.7,0.6,1.1,0.9c0.4,0.3,0.7,0.7,0.9,1
			c0.1,0.2,0.2,0.4,0.3,0.7C122.6,67.9,122.6,68.2,122.6,68.4z"/>
		<path style="fill:#93C01F;" d="M128.7,68.7c0,0.4-0.1,0.8-0.2,1.1c-0.1,0.3-0.3,0.6-0.6,0.8c-0.2,0.2-0.5,0.4-0.8,0.5
			c-0.3,0.1-0.6,0.2-1,0.2c-0.4,0-0.7-0.1-1-0.2c-0.3-0.1-0.6-0.3-0.8-0.5c-0.2-0.2-0.4-0.5-0.5-0.8c-0.1-0.3-0.2-0.7-0.2-1.1V63
			c0-0.4,0.1-0.7,0.2-1c0.1-0.3,0.3-0.6,0.5-0.8c0.2-0.2,0.5-0.4,0.8-0.5c0.3-0.1,0.7-0.2,1-0.2s0.7,0.1,1,0.2
			c0.3,0.1,0.6,0.3,0.8,0.5c0.2,0.2,0.4,0.5,0.6,0.8c0.2,0.3,0.2,0.7,0.2,1V68.7z M127.2,63c0-0.4-0.1-0.6-0.3-0.8
			c-0.2-0.2-0.5-0.3-0.8-0.3s-0.6,0.1-0.8,0.3c-0.2,0.2-0.3,0.5-0.3,0.8v5.6c0,0.4,0.1,0.6,0.3,0.8s0.5,0.3,0.8,0.3s0.5-0.1,0.8-0.3
			c0.3-0.2,0.3-0.5,0.3-0.8V63z"/>
		<path style="fill:#93C01F;" d="M132.3,61.9c-0.3,0-0.6,0.1-0.8,0.3c-0.2,0.2-0.3,0.5-0.3,0.8v5.6c0,0.4,0.1,0.6,0.3,0.8
			s0.5,0.3,0.8,0.3s0.5-0.1,0.8-0.3c0.2-0.2,0.3-0.5,0.3-0.8v-0.2l1.5-0.5v0.7c0,0.4-0.1,0.8-0.2,1.1c-0.1,0.3-0.3,0.6-0.6,0.8
			c-0.2,0.2-0.5,0.4-0.8,0.5s-0.6,0.2-1,0.2s-0.7-0.1-1-0.2s-0.6-0.3-0.8-0.5c-0.2-0.2-0.4-0.5-0.5-0.8c-0.1-0.3-0.2-0.7-0.2-1.1V63
			c0-0.5,0.1-0.9,0.2-1.2c0.1-0.3,0.3-0.6,0.5-0.8c0.2-0.2,0.5-0.3,0.8-0.4c0.3-0.1,0.7-0.1,1-0.1s0.7,0,1,0.1
			c0.3,0.1,0.6,0.2,0.8,0.4c0.2,0.2,0.4,0.5,0.6,0.8c0.2,0.3,0.2,0.7,0.2,1.2v0.4h-1.5V63c0-0.4-0.1-0.6-0.3-0.8
			C132.9,62,132.6,61.9,132.3,61.9z"/>
		<path style="fill:#93C01F;" d="M137.4,58.1c0,0.3-0.1,0.5-0.2,0.7c-0.1,0.2-0.3,0.3-0.5,0.3c-0.2,0-0.4-0.1-0.6-0.3
			c-0.2-0.2-0.2-0.4-0.2-0.7c0-0.2,0.1-0.4,0.2-0.6c0.1-0.2,0.3-0.3,0.6-0.3c0.2,0,0.4,0.1,0.6,0.3
			C137.3,57.7,137.4,57.9,137.4,58.1z M137.3,71h-1.5V60.7h1.5V71z"/>
		<path style="fill:#93C01F;" d="M143.5,71h-1l-0.3-0.6c-0.1,0.2-0.3,0.4-0.6,0.6c-0.3,0.2-0.6,0.2-1,0.2c-0.3,0-0.5-0.1-0.8-0.2
			s-0.5-0.3-0.7-0.5c-0.2-0.2-0.4-0.5-0.5-0.8c-0.1-0.3-0.2-0.8-0.2-1.2c0-0.5,0.1-1,0.2-1.3c0.1-0.4,0.3-0.7,0.5-1
			c0.2-0.3,0.5-0.6,0.7-0.8c0.3-0.2,0.5-0.5,0.8-0.7c0.3-0.2,0.5-0.4,0.8-0.6c0.2-0.2,0.5-0.4,0.6-0.6V63c0-0.3-0.1-0.6-0.2-0.8
			c-0.1-0.2-0.4-0.3-0.7-0.3c-0.6,0-0.9,0.2-1.1,0.7l-1.3-0.8c0.1-0.2,0.2-0.3,0.4-0.5c0.2-0.2,0.3-0.3,0.5-0.4s0.4-0.2,0.7-0.3
			c0.2-0.1,0.5-0.1,0.9-0.1c0.7,0,1.3,0.2,1.7,0.7c0.4,0.5,0.6,1.1,0.6,1.8V71L143.5,71z M142,65.5c-0.2,0.1-0.4,0.3-0.7,0.4
			c-0.3,0.2-0.5,0.4-0.7,0.6c-0.2,0.2-0.4,0.5-0.6,0.8c-0.2,0.3-0.2,0.6-0.2,1s0.1,0.8,0.3,1c0.2,0.2,0.5,0.4,0.8,0.4
			c0.4,0,0.7-0.1,0.9-0.4c0.2-0.3,0.3-0.6,0.3-0.9L142,65.5L142,65.5z"/>
		<path style="fill:#93C01F;" d="M149.5,71h-1l-0.3-0.5c-0.1,0.2-0.2,0.3-0.5,0.5c-0.3,0.2-0.6,0.2-1.1,0.2c-0.7,0-1.2-0.2-1.6-0.7
			c-0.4-0.5-0.6-1.1-0.6-2V63c0-0.8,0.2-1.4,0.6-1.8c0.4-0.5,1-0.7,1.7-0.7c0.4,0,0.7,0,0.9,0.1c0.2,0.1,0.4,0.2,0.5,0.3v-3.3
			l1.5-0.5L149.5,71L149.5,71z M148,63c0-0.4-0.1-0.6-0.3-0.8c-0.2-0.2-0.5-0.3-0.8-0.3c-0.3,0-0.6,0.1-0.8,0.3
			c-0.2,0.2-0.3,0.5-0.3,0.8v5.6c0,0.4,0.1,0.6,0.3,0.8s0.5,0.3,0.8,0.3c0.3,0,0.5-0.1,0.8-0.3c0.2-0.2,0.3-0.5,0.3-0.8V63z"/>
		<path style="fill:#93C01F;" d="M155.8,68.7c0,0.4-0.1,0.8-0.2,1.1c-0.1,0.3-0.3,0.6-0.6,0.8c-0.2,0.2-0.5,0.4-0.8,0.5
			c-0.3,0.1-0.6,0.2-1,0.2c-0.4,0-0.7-0.1-1-0.2c-0.3-0.1-0.6-0.3-0.8-0.5c-0.2-0.2-0.4-0.5-0.5-0.8c-0.1-0.3-0.2-0.7-0.2-1.1V63
			c0-0.4,0.1-0.7,0.2-1c0.1-0.3,0.3-0.6,0.5-0.8c0.2-0.2,0.5-0.4,0.8-0.5c0.3-0.1,0.7-0.2,1-0.2c0.4,0,0.7,0.1,1,0.2
			c0.3,0.1,0.6,0.3,0.8,0.5c0.2,0.2,0.4,0.5,0.6,0.8c0.1,0.3,0.2,0.7,0.2,1V68.7z M154.3,63c0-0.4-0.1-0.6-0.3-0.8
			c-0.2-0.2-0.5-0.3-0.8-0.3c-0.3,0-0.6,0.1-0.8,0.3c-0.2,0.2-0.3,0.5-0.3,0.8v5.6c0,0.4,0.1,0.6,0.3,0.8c0.2,0.2,0.5,0.3,0.8,0.3
			c0.3,0,0.5-0.1,0.8-0.3c0.2-0.2,0.3-0.5,0.3-0.8V63L154.3,63z"/>
		<path style="fill:#93C01F;" d="M162,68.4c0,0.4-0.1,0.7-0.2,1.1s-0.3,0.6-0.5,0.9s-0.5,0.5-0.8,0.6c-0.3,0.2-0.7,0.2-1.2,0.2
			c-0.4,0-0.7-0.1-1-0.2s-0.6-0.3-0.8-0.5c-0.2-0.2-0.4-0.5-0.5-0.8c-0.1-0.3-0.2-0.7-0.2-1V68l1.5,0.3v0.4c0,0.3,0.1,0.6,0.3,0.8
			c0.2,0.2,0.5,0.3,0.8,0.3c0.8,0,1.2-0.4,1.2-1.1c0-0.3,0-0.5-0.1-0.7c-0.1-0.2-0.2-0.4-0.3-0.5c-0.2-0.2-0.4-0.4-0.6-0.6
			s-0.4-0.3-0.6-0.5s-0.4-0.3-0.6-0.5c-0.2-0.2-0.4-0.4-0.6-0.6c-0.2-0.3-0.4-0.6-0.6-1c-0.2-0.4-0.2-0.8-0.2-1.3
			c0-0.4,0.1-0.7,0.2-1c0.1-0.3,0.3-0.6,0.5-0.8c0.2-0.2,0.5-0.4,0.8-0.5c0.3-0.1,0.7-0.2,1-0.2c0.8,0,1.4,0.2,1.8,0.7
			s0.6,1.1,0.6,1.8v0.7l-1.5-0.3V63c0-0.3-0.1-0.6-0.3-0.8c-0.2-0.2-0.4-0.3-0.7-0.3c-0.3,0-0.6,0.1-0.7,0.3
			c-0.2,0.2-0.3,0.5-0.3,0.8c0,0.4,0.1,0.8,0.4,1.1c0.2,0.3,0.5,0.6,0.9,0.9c0.3,0.3,0.7,0.6,1.1,0.9s0.7,0.7,0.9,1
			c0.1,0.2,0.2,0.4,0.3,0.7C162,67.9,162,68.2,162,68.4z"/>
	</g>
	<path style="fill:#DDDB00;" d="M100.7,73.9c0,0-16.2,7-50.5,7c-34.3,0-49-8.5-49-8.5s19.6,5.4,47.4,5.4
		C79.8,77.8,100.7,73.9,100.7,73.9z"/>
	<path style="fill:#DDDB00;" d="M49.9,79.2c-0.3-1.3-0.5-2.7-0.8-4.1c-9.2-46.3,6.6-71.5,6.6-71.5S43.1,31,51.5,72.7
		c0.4,2,0.8,3.9,1.1,5.8"/>
	<path style="fill:#DDDB00;" d="M52,79.2c0.3-1.3,0.5-2.7,0.8-4.1C62,28.8,46.2,3.6,46.2,3.6S58.8,31,50.4,72.7
		c-0.4,2-0.8,3.9-1.1,5.8"/>
</g>
</svg>
