<?xml version="1.0" encoding="utf-8"?>
<!-- Generator: Adobe Illustrator 16.0.0, SVG Export Plug-In . SVG Version: 6.00 Build 0)  -->
<!DOCTYPE svg PUBLIC "-//W3C//DTD SVG 1.1//EN" "http://www.w3.org/Graphics/SVG/1.1/DTD/svg11.dtd">
<svg version="1.1" id="Capa_1" xmlns="http://www.w3.org/2000/svg" xmlns:xlink="http://www.w3.org/1999/xlink" x="0px" y="0px"
	 width="100px" height="100px" viewBox="0 0 100 100" style="enable-background:new 0 0 100 100;" xml:space="preserve">
<circle style="fill:#8CC63F;stroke:#8CC63F;stroke-width:4.6381;stroke-miterlimit:10;" cx="49.9" cy="50" r="45.8"/>
<path style="fill:#FFFFFF;" d="M71,74.3c0,3.1-2.5,5.7-5.7,5.7H34.7c-3.1,0-5.7-2.5-5.7-5.7V22.7c0-3.1,2.5-5.7,5.7-5.7h30.7
	c3.1,0,5.7,2.5,5.7,5.7V74.3z"/>
<path style="fill:#8CC63F;" d="M67,25.5c0,2.5-2,4.5-4.5,4.5h-25C35,30,33,28,33,25.5l0,0c0-2.5,2-4.5,4.5-4.5h25
	C65,21,67,23,67,25.5L67,25.5z"/>
<g>
	<path style="fill:#8CC63F;" d="M41,45.2c0,2.1-1.7,3.8-3.8,3.8h-0.3c-2.1,0-3.8-1.7-3.8-3.8v-0.3c0-2.1,1.7-3.8,3.8-3.8h0.3
		c2.1,0,3.8,1.7,3.8,3.8V45.2z"/>
	<path style="fill:#8CC63F;" d="M54,45.2c0,2.1-1.7,3.8-3.8,3.8h-0.3c-2.1,0-3.8-1.7-3.8-3.8v-0.3c0-2.1,1.7-3.8,3.8-3.8h0.3
		c2.1,0,3.8,1.7,3.8,3.8V45.2z"/>
	<path style="fill:#8CC63F;" d="M66,45.2c0,2.1-1.7,3.8-3.8,3.8h-0.3c-2.1,0-3.8-1.7-3.8-3.8v-0.3c0-2.1,1.7-3.8,3.8-3.8h0.3
		c2.1,0,3.8,1.7,3.8,3.8V45.2z"/>
	<path style="fill:#8CC63F;" d="M41,58.2c0,2.1-1.7,3.8-3.8,3.8h-0.3c-2.1,0-3.8-1.7-3.8-3.8v-0.3c0-2.1,1.7-3.8,3.8-3.8h0.3
		c2.1,0,3.8,1.7,3.8,3.8V58.2z"/>
	<path style="fill:#8CC63F;" d="M54,58.2c0,2.1-1.7,3.8-3.8,3.8h-0.3c-2.1,0-3.8-1.7-3.8-3.8v-0.3c0-2.1,1.7-3.8,3.8-3.8h0.3
		c2.1,0,3.8,1.7,3.8,3.8V58.2z"/>
	<path style="fill:#8CC63F;" d="M66,58.2c0,2.1-1.7,3.8-3.8,3.8h-0.3c-2.1,0-3.8-1.7-3.8-3.8v-0.3c0-2.1,1.7-3.8,3.8-3.8h0.3
		c2.1,0,3.8,1.7,3.8,3.8V58.2z"/>
	<path style="fill:#8CC63F;" d="M41,70.2c0,2.1-1.7,3.8-3.8,3.8h-0.3c-2.1,0-3.8-1.7-3.8-3.8v-0.3c0-2.1,1.7-3.8,3.8-3.8h0.3
		c2.1,0,3.8,1.7,3.8,3.8V70.2z"/>
	<path style="fill:#8CC63F;" d="M54,70.2c0,2.1-1.7,3.8-3.8,3.8h-0.3c-2.1,0-3.8-1.7-3.8-3.8v-0.3c0-2.1,1.7-3.8,3.8-3.8h0.3
		c2.1,0,3.8,1.7,3.8,3.8V70.2z"/>
	<path style="fill:#8CC63F;" d="M66,70.2c0,2.1-1.7,3.8-3.8,3.8h-0.3c-2.1,0-3.8-1.7-3.8-3.8v-0.3c0-2.1,1.7-3.8,3.8-3.8h0.3
		c2.1,0,3.8,1.7,3.8,3.8V70.2z"/>
</g>
<g>
	<g>
		<path style="fill:#FFFFFF;stroke:#8CC63F;stroke-width:2.3357;stroke-miterlimit:10;" d="M75,78.1c0.7,0,1.4,0.3,1.9,0.8
			c0.5,0.5,0.8,1.2,0.8,2c0,0.3,0,0.5-0.1,0.8s-0.2,0.5-0.3,0.8c-0.8,1.4-1.9,2.5-3.3,3.3c-1.4,0.8-3,1.2-4.6,1.2
			c-1.2,0-2.3-0.2-3.4-0.7c-1.1-0.5-2.1-1.1-2.9-1.9c-0.9-0.8-1.5-1.8-2-2.9c-0.2-0.4-0.3-0.8-0.4-1.1h-0.2c-0.8,0-1.4-0.2-1.9-0.7
			c-0.5-0.5-0.8-1.1-0.8-1.8c0-0.7,0.3-1.3,0.8-1.9c0.5-0.5,1.1-0.8,1.8-0.8v-1.5c-0.7,0-1.3-0.3-1.8-0.8c-0.5-0.5-0.8-1.2-0.8-1.9
			c0-0.7,0.3-1.3,0.8-1.8c0.5-0.5,1.1-0.7,1.9-0.7c0.2-0.5,0.4-1,0.6-1.5c0.5-1.1,1.1-2.1,2-2.9c0.8-0.9,1.8-1.5,2.9-2
			c1.1-0.5,2.3-0.7,3.6-0.7c1.6,0,3.2,0.4,4.6,1.2c1.4,0.8,2.6,2,3.4,3.4c0.1,0.2,0.2,0.4,0.3,0.7c0.1,0.3,0.1,0.5,0.1,0.8
			c0,0.8-0.3,1.4-0.8,1.9c-0.5,0.5-1.2,0.8-1.9,0.8c-0.6,0-1.1-0.2-1.5-0.5c-0.4-0.3-0.7-0.7-1-1.2c-0.3-0.5-0.8-1-1.3-1.3
			c-0.6-0.3-1.2-0.5-1.9-0.5c-0.5,0-1,0.1-1.4,0.3c-0.4,0.2-0.8,0.5-1.2,0.8c-0.2,0.2-0.4,0.4-0.5,0.6h0.4c0.7,0,1.4,0.2,1.9,0.7
			c0.5,0.5,0.8,1.1,0.8,1.8c0,0.7-0.3,1.4-0.8,1.9c-0.5,0.5-1.1,0.8-1.9,0.8h-1.1V75h1.1c0.7,0,1.4,0.3,1.9,0.8
			c0.5,0.5,0.8,1.2,0.8,1.9c0,0.7-0.3,1.3-0.8,1.8c-0.5,0.5-1.1,0.7-1.9,0.7h-0.1l0.1,0.2c0.4,0.3,0.8,0.6,1.2,0.8
			c0.4,0.2,0.9,0.3,1.4,0.3c0.7,0,1.3-0.2,1.9-0.5c0.5-0.3,1-0.8,1.3-1.3c0.3-0.5,0.6-0.8,0.9-1.1C73.7,78.2,74.2,78.1,75,78.1z"/>
	</g>
	<g>
		<path style="fill:#FFFFFF;" d="M75,78.1c0.7,0,1.4,0.3,1.9,0.8c0.5,0.5,0.8,1.2,0.8,2c0,0.3,0,0.5-0.1,0.8s-0.2,0.5-0.3,0.8
			c-0.8,1.4-1.9,2.5-3.3,3.3c-1.4,0.8-3,1.2-4.6,1.2c-1.2,0-2.3-0.2-3.4-0.7c-1.1-0.5-2.1-1.1-2.9-1.9c-0.9-0.8-1.5-1.8-2-2.9
			c-0.2-0.4-0.3-0.8-0.4-1.1h-0.2c-0.8,0-1.4-0.2-1.9-0.7c-0.5-0.5-0.8-1.1-0.8-1.8c0-0.7,0.3-1.3,0.8-1.9c0.5-0.5,1.1-0.8,1.8-0.8
			v-1.5c-0.7,0-1.3-0.3-1.8-0.8c-0.5-0.5-0.8-1.2-0.8-1.9c0-0.7,0.3-1.3,0.8-1.8c0.5-0.5,1.1-0.7,1.9-0.7c0.2-0.5,0.4-1,0.6-1.5
			c0.5-1.1,1.1-2.1,2-2.9c0.8-0.9,1.8-1.5,2.9-2c1.1-0.5,2.3-0.7,3.6-0.7c1.6,0,3.2,0.4,4.6,1.2c1.4,0.8,2.6,2,3.4,3.4
			c0.1,0.2,0.2,0.4,0.3,0.7c0.1,0.3,0.1,0.5,0.1,0.8c0,0.8-0.3,1.4-0.8,1.9c-0.5,0.5-1.2,0.8-1.9,0.8c-0.6,0-1.1-0.2-1.5-0.5
			c-0.4-0.3-0.7-0.7-1-1.2c-0.3-0.5-0.8-1-1.3-1.3c-0.6-0.3-1.2-0.5-1.9-0.5c-0.5,0-1,0.1-1.4,0.3c-0.4,0.2-0.8,0.5-1.2,0.8
			c-0.2,0.2-0.4,0.4-0.5,0.6h0.4c0.7,0,1.4,0.2,1.9,0.7c0.5,0.5,0.8,1.1,0.8,1.8c0,0.7-0.3,1.4-0.8,1.9c-0.5,0.5-1.1,0.8-1.9,0.8
			h-1.1V75h1.1c0.7,0,1.4,0.3,1.9,0.8c0.5,0.5,0.8,1.2,0.8,1.9c0,0.7-0.3,1.3-0.8,1.8c-0.5,0.5-1.1,0.7-1.9,0.7h-0.1l0.1,0.2
			c0.4,0.3,0.8,0.6,1.2,0.8c0.4,0.2,0.9,0.3,1.4,0.3c0.7,0,1.3-0.2,1.9-0.5c0.5-0.3,1-0.8,1.3-1.3c0.3-0.5,0.6-0.8,0.9-1.1
			C73.7,78.2,74.2,78.1,75,78.1z"/>
	</g>
</g>
</svg>
