<?xml version="1.0" encoding="utf-8"?>
<!-- Generator: Adobe Illustrator 16.0.0, SVG Export Plug-In . SVG Version: 6.00 Build 0)  -->
<!DOCTYPE svg PUBLIC "-//W3C//DTD SVG 1.1//EN" "http://www.w3.org/Graphics/SVG/1.1/DTD/svg11.dtd">
<svg version="1.1" id="Capa_1" xmlns="http://www.w3.org/2000/svg" xmlns:xlink="http://www.w3.org/1999/xlink" x="0px" y="0px"
	 width="100px" height="100px" viewBox="0 0 100 100" style="enable-background:new 0 0 100 100;" xml:space="preserve">
<circle style="fill:#8CC63F;stroke:#8CC63F;stroke-width:4.6381;stroke-miterlimit:10;" cx="49.9" cy="50" r="45.8"/>
<g>
	<path style="fill:#FFFFFF;" d="M50,18.5c-8.7,0-15.8,7.1-15.8,15.8S45.5,65.4,50,65.4c4.9,0,15.8-22.3,15.8-31.1S58.7,18.5,50,18.5
		z M50,39c-3.7,0-6.6-3-6.6-6.6c0-3.7,3-6.6,6.6-6.6s6.6,3,6.6,6.6C56.6,36,53.7,39,50,39z"/>
	<path style="fill:#FFFFFF;" d="M50,56.3c-21.3,0-38.5,4.6-38.5,10.3S28.7,76.9,50,76.9c21.3,0,38.5-4.6,38.5-10.3
		S71.3,56.3,50,56.3z M50,72.3c-18.5,0-33.6-3.3-33.6-7.5c0-4.1,15-7.5,33.6-7.5s33.6,3.3,33.6,7.5C83.6,68.9,68.5,72.3,50,72.3z"/>
	<path style="fill:#FFFFFF;" d="M50,58c-13.2,0-23.9,2.9-23.9,6.4s10.7,6.4,23.9,6.4s23.9-2.9,23.9-6.4S63.2,58,50,58z M50,68
		c-11.5,0-20.8-2.1-20.8-4.6c0-2.6,9.3-4.6,20.8-4.6s20.8,2.1,20.8,4.6C70.8,65.9,61.5,68,50,68z"/>
</g>
</svg>
